Coordinates
version=1
nRows=60
nColumns=12
inDegrees=yes

Units are S.I. units (second, meters, Newtons, ...)
Angles are in degrees

endheader
time	SC_y	SC_z	SC_x	AC_y	AC_z	AC_x	GH_y	GH_z	GH_yy	EL_x	PS_y
       0.0              -24.15          30.72          8.482          55.66          4.593         -9.565         -59.68         -1.826          74.74          6.858          52.87
  0.007128              -24.16          30.72          8.484          55.66          4.593         -9.566         -59.65         -1.823          74.73          6.877          52.88
   0.01426              -24.16          30.72          8.486          55.66          4.592         -9.568         -59.61          -1.82          74.72          6.897          52.89
   0.02138              -24.16          30.72          8.488          55.65          4.592         -9.569         -59.58         -1.816          74.71          6.918           52.9
   0.02851              -24.16          30.72          8.491          55.65          4.592         -9.571         -59.54         -1.813          74.69          6.941          52.91
   0.03564              -24.17          30.72          8.493          55.65          4.592         -9.572          -59.5         -1.809          74.68          6.966          52.92
   0.04277              -24.17          30.72          8.496          55.64          4.591         -9.574         -59.45         -1.806          74.66          6.992          52.94
   0.04989              -24.17          30.71          8.498          55.64          4.591         -9.576          -59.4         -1.801          74.65           7.02          52.95
   0.05702              -24.18          30.71          8.501          55.64          4.591         -9.577         -59.35         -1.797          74.63          7.049          52.96
   0.06415              -24.18          30.71          8.505          55.63           4.59         -9.579          -59.3         -1.792          74.61          7.081          52.98
   0.07128              -24.18          30.71          8.508          55.63           4.59         -9.582         -59.24         -1.787          74.59          7.116          52.99
   0.07841              -24.19          30.71          8.512          55.62          4.589         -9.584         -59.18         -1.781          74.57          7.152          53.01
   0.08553              -24.19          30.71          8.516          55.62          4.589         -9.587         -59.11         -1.776          74.55          7.192          53.03
   0.09266               -24.2          30.71           8.52          55.61          4.588         -9.589         -59.04         -1.769          74.52          7.235          53.05
   0.09979               -24.2           30.7          8.525          55.61          4.588         -9.592         -58.96         -1.762          74.49          7.282          53.07
    0.1069              -24.21           30.7           8.53           55.6          4.587         -9.596         -58.87         -1.755          74.46          7.332           53.1
     0.114              -24.21           30.7          8.536          55.59          4.586         -9.599         -58.78         -1.746          74.43          7.387          53.12
    0.1212              -24.22           30.7          8.542          55.58          4.586         -9.603         -58.68         -1.737           74.4          7.447          53.15
    0.1283              -24.23          30.69          8.548          55.58          4.585         -9.607         -58.56         -1.728          74.36          7.512          53.18
    0.1354              -24.23          30.69          8.556          55.57          4.584         -9.612         -58.44         -1.717          74.31          7.584          53.22
    0.1426              -24.24          30.69          8.564          55.56          4.583         -9.617         -58.31         -1.705          74.27          7.662          53.25
    0.1497              -24.25          30.68          8.572          55.55          4.582         -9.622         -58.16         -1.692          74.22          7.748          53.29
    0.1568              -24.26          30.68          8.582          55.53          4.581         -9.628          -58.0         -1.678          74.16          7.844          53.34
    0.1639              -24.27          30.67          8.593          55.52          4.579         -9.635         -57.82         -1.662           74.1          7.949          53.39
    0.1711              -24.29          30.67          8.605           55.5          4.578         -9.643         -57.62         -1.645          74.03          8.067          53.44
    0.1782               -24.3          30.66          8.618          55.49          4.576         -9.651          -57.4         -1.625          73.95          8.198          53.51
    0.1853              -24.32          30.66          8.633          55.47          4.574         -9.661         -57.15         -1.603          73.86          8.345          53.58
    0.1925              -24.33          30.65          8.649          55.45          4.572         -9.671         -56.86         -1.579          73.77           8.51          53.65
    0.1996              -24.36          30.64          8.668          55.42           4.57         -9.683         -56.55         -1.551          73.66          8.696          53.74
    0.2067              -24.38          30.63           8.69          55.39          4.567         -9.697         -56.19         -1.519          73.53          8.908          53.84
    0.2138               -24.4          30.62          8.714          55.36          4.564         -9.712         -55.77         -1.483          73.39           9.15          53.96
     0.221              -24.43          30.61          8.742          55.32          4.561          -9.73          -55.3         -1.441          73.22          9.428          54.09
    0.2281              -24.47           30.6          8.775          55.28          4.557         -9.751         -54.75         -1.393          73.04          9.748          54.24
    0.2352              -24.51          30.58          8.813          55.23          4.552         -9.775         -54.12         -1.338          72.82          10.12          54.42
    0.2423              -24.56          30.56          8.857          55.18          4.546         -9.802         -53.38         -1.273          72.56          10.56          54.62
    0.2495              -24.61          30.54          8.909          55.11           4.54         -9.835          -52.5         -1.196          72.25          11.07          54.86
    0.2566              -24.68          30.51           8.97          55.03          4.532         -9.875         -51.46         -1.105          71.89          11.68          55.15
    0.2637              -24.76          30.48          9.045          54.93          4.523         -9.922         -50.21        -0.9954          71.46          12.41           55.5
    0.2709              -24.86          30.44          9.134          54.82          4.512         -9.978         -48.71        -0.8631          70.94           13.3          55.92
     0.278              -24.97          30.39          9.244          54.68          4.498         -10.05         -46.86        -0.7015           70.3          14.38          56.43
    0.2851              -25.12          30.34          9.379           54.5          4.482         -10.13         -44.59        -0.5021          69.51          15.71          57.06
    0.2922               -25.3          30.26          9.547          54.28          4.461         -10.24         -41.75        -0.2533          68.53          17.38          57.85
    0.2994              -25.53          30.17           9.76          54.01          4.434         -10.37         -38.18        0.05997          67.29          19.47          58.84
    0.3065              -25.82          30.05          10.03          53.66          4.401         -10.55         -33.64         0.4583          65.71          22.14           60.1
    0.3136              -26.19          29.91          10.37          53.21          4.358         -10.76         -27.82         0.9681           63.7          25.55          61.72
    0.3208              -26.67          29.71          10.82          52.64          4.303         -11.05         -20.36          1.622          61.11          29.92          63.79
    0.3279              -27.28          29.47          11.38           51.9          4.233          -11.4         -10.84          2.458          57.81          35.51          66.43
     0.335              -28.04          29.16           12.1          50.98          4.144         -11.86          1.146          3.509          53.65          42.54          69.76
    0.3421              -28.98          28.79          12.96          49.85          4.037          -12.4          15.75          4.789          48.59          51.11          73.81
    0.3493              -30.06          28.36          13.97          48.55          3.912         -13.04          32.67          6.273          42.72          61.04          78.51
    0.3564              -31.23          27.89          15.06          47.14          3.777         -13.73           51.0           7.88          36.36          71.79           83.6
    0.3635               -32.4          27.42          16.15          45.73          3.642         -14.42          69.32          9.488          30.01          82.54          88.69
    0.3706              -33.48          26.98          17.15          44.43          3.517         -15.06          86.25          10.97          24.14          92.47          93.39
    0.3778              -34.41          26.61          18.02           43.3          3.409         -15.61          100.8          12.25          19.08          101.0          97.44
    0.3849              -35.18           26.3          18.73          42.38          3.321         -16.06          112.8           13.3          14.92          108.1          100.8
     0.392              -35.79          26.06           19.3          41.65           3.25         -16.42          122.4          14.14          11.62          113.7          103.4
    0.3992              -36.27          25.87          19.74          41.07          3.195          -16.7          129.8          14.79          9.029          118.0          105.5
    0.4063              -36.64          25.72          20.09          40.62          3.152         -16.92          135.6           15.3          7.013          121.4          107.1
    0.4134              -36.93           25.6          20.36          40.27          3.119         -17.09          140.2           15.7          5.438          124.1          108.4
    0.4205              -37.16          25.51          20.57           40.0          3.093         -17.22          143.7          16.01          4.199          126.2          109.3
